<?xml version="1.0" encoding="utf-8"?>
<!-- Generator: Adobe Illustrator 22.0.1, SVG Export Plug-In . SVG Version: 6.00 Build 0)  -->
<svg version="1.1" id="Calque_1" xmlns="http://www.w3.org/2000/svg" xmlns:xlink="http://www.w3.org/1999/xlink" x="0px" y="0px"
	 viewBox="0 0 200 60" style="enable-background:new 0 0 200 60;" xml:space="preserve">
<style type="text/css">
	.st0{fill:#F7F7F7;}
	.st1{fill:#F5F4F5;}
	.st2{fill:#F4F0F2;}
	.st3{fill:#F2EDF0;}
	.st4{fill:#F1E9EE;}
	.st5{fill:#EFE6EC;}
	.st6{fill:#EEE3E9;}
	.st7{fill:#ECDFE7;}
	.st8{fill:#EADCE5;}
	.st9{fill:#E9D9E3;}
	.st10{fill:#E7D5E0;}
	.st11{fill:#E6D2DE;}
	.st12{fill:#E4CEDC;}
	.st13{fill:#E3CBDA;}
	.st14{fill:#E1C8D7;}
	.st15{fill:#DFC4D5;}
	.st16{fill:#DEC1D3;}
	.st17{fill:#DCBDD1;}
	.st18{fill:#DBBACE;}
	.st19{fill:#D9B7CC;}
	.st20{fill:#D8B3CA;}
	.st21{fill:#D6B0C8;}
	.st22{fill:#D4ADC5;}
	.st23{fill:#D3A9C3;}
	.st24{fill:#D1A6C1;}
	.st25{fill:#D0A2BF;}
	.st26{fill:#CE9FBC;}
	.st27{fill:#CD9CBA;}
	.st28{fill:#CB98B8;}
	.st29{fill:#C995B6;}
	.st30{fill:#C891B3;}
	.st31{fill:#C68EB1;}
	.st32{fill:#C58BAF;}
	.st33{fill:#C387AD;}
	.st34{fill:#C284AA;}
	.st35{fill:#C081A8;}
	.st36{fill:#BE7DA6;}
	.st37{fill:#BD7AA3;}
	.st38{fill:#BB76A1;}
	.st39{fill:#BA739F;}
	.st40{fill:#B8709D;}
	.st41{fill:#B76C9A;}
	.st42{fill:#B56998;}
	.st43{fill:#B36596;}
	.st44{fill:#B26294;}
	.st45{fill:#B05F91;}
	.st46{fill:#AF5B8F;}
	.st47{fill:#AD588D;}
	.st48{fill:#AC548B;}
	.st49{fill:#AA5188;}
	.st50{fill:#A84E86;}
	.st51{fill:#A74A84;}
	.st52{fill:#A54782;}
	.st53{fill:#A4447F;}
	.st54{fill:#A2407D;}
	.st55{fill:#A13D7B;}
	.st56{fill:#9F3979;}
	.st57{fill:#9D3676;}
	.st58{fill:#9C3374;}
	.st59{fill:#9A2F72;}
	.st60{fill:#992C70;}
	.st61{fill:#97286D;}
	.st62{fill:#96256B;}
	.st63{fill:#942269;}
	.st64{fill:#921E67;}
	.st65{fill:#911B64;}
	.st66{fill:#8F1862;}
	.st67{fill:#8E1460;}
	.st68{fill:#8C115E;}
	.st69{fill:#8B0D5B;}
	.st70{fill:#890A59;}
	.st71{stroke:#FFFFFF;stroke-miterlimit:10;}
	.st72{stroke:#FFFFFF;stroke-width:0.5;stroke-miterlimit:10;}
	.st73{fill:none;stroke:#FFFFFF;stroke-width:2;stroke-miterlimit:10;}
	.st74{fill:none;stroke:#CE49AB;stroke-width:2;stroke-miterlimit:10;}
	.st75{fill:#FFFFFF;}
	.st76{font-family:'DavidLibre-Regular';}
	.st77{font-size:24px;}
</style>
<g>
	<g>
		<rect class="st0" width="60" height="60"/>
	</g>
	<g>
		<rect x="2" y="0" class="st1" width="60" height="60"/>
	</g>
	<g>
		<rect x="4" class="st2" width="60" height="60"/>
	</g>
	<g>
		<rect x="6" class="st3" width="60" height="60"/>
	</g>
	<g>
		<rect x="8" y="0" class="st4" width="60" height="60"/>
	</g>
	<g>
		<rect x="10" class="st5" width="60" height="60"/>
	</g>
	<g>
		<rect x="12" class="st6" width="60" height="60"/>
	</g>
	<g>
		<rect x="14" y="0" class="st7" width="60" height="60"/>
	</g>
	<g>
		<rect x="16" class="st8" width="60" height="60"/>
	</g>
	<g>
		<rect x="18" class="st9" width="60" height="60"/>
	</g>
	<g>
		<rect x="20" class="st10" width="60" height="60"/>
	</g>
	<g>
		<rect x="22" class="st11" width="60" height="60"/>
	</g>
	<g>
		<rect x="24" class="st12" width="60" height="60"/>
	</g>
	<g>
		<rect x="26" class="st13" width="60" height="60"/>
	</g>
	<g>
		<rect x="28" class="st14" width="60" height="60"/>
	</g>
	<g>
		<rect x="30" class="st15" width="60" height="60"/>
	</g>
	<g>
		<rect x="32" y="0" class="st16" width="60" height="60"/>
	</g>
	<g>
		<rect x="34" class="st17" width="60" height="60"/>
	</g>
	<g>
		<rect x="36" class="st18" width="60" height="60"/>
	</g>
	<g>
		<rect x="38" class="st19" width="60" height="60"/>
	</g>
	<g>
		<rect x="40" class="st20" width="60" height="60"/>
	</g>
	<g>
		<rect x="42" class="st21" width="60" height="60"/>
	</g>
	<g>
		<rect x="44" class="st22" width="60" height="60"/>
	</g>
	<g>
		<rect x="46" class="st23" width="60" height="60"/>
	</g>
	<g>
		<rect x="48" class="st24" width="60" height="60"/>
	</g>
	<g>
		<rect x="50" y="0" class="st25" width="60" height="60"/>
	</g>
	<g>
		<rect x="52" class="st26" width="60" height="60"/>
	</g>
	<g>
		<rect x="54" class="st27" width="60" height="60"/>
	</g>
	<g>
		<rect x="56" class="st28" width="60" height="60"/>
	</g>
	<g>
		<rect x="58" class="st29" width="60" height="60"/>
	</g>
	<g>
		<rect x="60" class="st30" width="60" height="60"/>
	</g>
	<g>
		<rect x="62" y="0" class="st31" width="60" height="60"/>
	</g>
	<g>
		<rect x="64" class="st32" width="60" height="60"/>
	</g>
	<g>
		<rect x="66" class="st33" width="60" height="60"/>
	</g>
	<g>
		<rect x="68" class="st34" width="60" height="60"/>
	</g>
	<g>
		<rect x="70" class="st35" width="60" height="60"/>
	</g>
	<g>
		<rect x="72" class="st36" width="60" height="60"/>
	</g>
	<g>
		<rect x="74" class="st37" width="60" height="60"/>
	</g>
	<g>
		<rect x="76" class="st38" width="60" height="60"/>
	</g>
	<g>
		<rect x="78" class="st39" width="60" height="60"/>
	</g>
	<g>
		<rect x="80" class="st40" width="60" height="60"/>
	</g>
	<g>
		<rect x="82" class="st41" width="60" height="60"/>
	</g>
	<g>
		<rect x="84" class="st42" width="60" height="60"/>
	</g>
	<g>
		<rect x="86" class="st43" width="60" height="60"/>
	</g>
	<g>
		<rect x="88" class="st44" width="60" height="60"/>
	</g>
	<g>
		<rect x="90" class="st45" width="60" height="60"/>
	</g>
	<g>
		<rect x="92" class="st46" width="60" height="60"/>
	</g>
	<g>
		<rect x="94" class="st47" width="60" height="60"/>
	</g>
	<g>
		<rect x="96" class="st48" width="60" height="60"/>
	</g>
	<g>
		<rect x="98" class="st49" width="60" height="60"/>
	</g>
	<g>
		<rect x="100" class="st50" width="60" height="60"/>
	</g>
	<g>
		<rect x="102" class="st51" width="60" height="60"/>
	</g>
	<g>
		<rect x="104" class="st52" width="60" height="60"/>
	</g>
	<g>
		<rect x="106" class="st53" width="60" height="60"/>
	</g>
	<g>
		<rect x="108" class="st54" width="60" height="60"/>
	</g>
	<g>
		<rect x="110" class="st55" width="60" height="60"/>
	</g>
	<g>
		<rect x="112" class="st56" width="60" height="60"/>
	</g>
	<g>
		<rect x="114" class="st57" width="60" height="60"/>
	</g>
	<g>
		<rect x="116" class="st58" width="60" height="60"/>
	</g>
	<g>
		<rect x="118" class="st59" width="60" height="60"/>
	</g>
	<g>
		<rect x="120" class="st60" width="60" height="60"/>
	</g>
	<g>
		<rect x="122" class="st61" width="60" height="60"/>
	</g>
	<g>
		<rect x="124" class="st62" width="60" height="60"/>
	</g>
	<g>
		<rect x="126" class="st63" width="60" height="60"/>
	</g>
	<g>
		<rect x="128" class="st64" width="60" height="60"/>
	</g>
	<g>
		<rect x="130" class="st65" width="60" height="60"/>
	</g>
	<g>
		<rect x="132" class="st66" width="60" height="60"/>
	</g>
	<g>
		<rect x="134" class="st67" width="60" height="60"/>
	</g>
	<g>
		<rect x="136" class="st68" width="60" height="60"/>
	</g>
	<g>
		<rect x="138" class="st69" width="60" height="60"/>
	</g>
	<g>
		<rect x="140" class="st70" width="60" height="60"/>
	</g>
</g>
<polygon class="st71" points="28,1.8 3.3,16.1 3.3,44.6 28,58.9 52.7,44.6 52.7,16.1 "/>
<polygon class="st72" points="27.6,5 5.7,17.7 5.7,43 27.6,55.7 49.6,43 49.6,17.7 "/>
<polyline class="st73" points="42.5,39.7 39.1,44.2 16.6,44.2 38,18.3 17.8,18.3 15.5,22.8 "/>
<polyline class="st74" points="42.1,40.2 39.1,44.2 30.1,44.1 30.1,18.4 30.1,17 "/>
<text transform="matrix(1 0 0 1 70.25 37)" class="st75 st76 st77">Zila Henna</text>
</svg>
